{
  "source": "C:\\Users\\Peter\\Desktop\\stuff\\MIUN\\quantitative_research\\video_compression\\videos\\BVI-HD\\BubblesPitcher_1920x1080_60fps.mp4",
  "output": "C:\\Users\\Peter\\Desktop\\stuff\\MIUN\\quantitative_research\\video_compression\\compressed_videos\\BVI-HD\\vp9\\12\\BubblesPitcher_1920x1080_60fps_vp9.webm",
  "codec": "vp9",
  "ok": "Input #0, mov,mp4,m4a,3gp,3g2,mj2, from 'C:\\Users\\Peter\\Desktop\\stuff\\MIUN\\quantitative_research\\video_compression\\videos\\BVI-HD\\BubblesPitcher_1920x1080_60fps.mp4':\n  Metadata:\n    major_brand     : isom\n    minor_version   : 512\n    compatible_brands: isomiso2avc1mp41\n    encoder         : Lavf54.28.101\n  Duration: 00:00:05.00, start: 0.000000, bitrate: 188849 kb/s\n  Stream #0:0[0x1](und): Video: h264 (High 4:4:4 Predictive) (avc1 / 0x31637661), yuv420p(progressive), 1920x1080, 188844 kb/s, 60 fps, 60 tbr, 60 tbn (default)\n    Metadata:\n      handler_name    : VideoHandler\n      vendor_id       : [0][0][0][0]\n[out#0/webm @ 0000023e8e867840] Codec AVOption b:a (set bitrate (in bits/s)) has not been used for any stream. The most likely reason is either wrong type (e.g. a video option with no video streams) or that it is a private option of some decoder which was not actually used for any stream.\nStream mapping:\n  Stream #0:0 -> #0:0 (h264 (native) -> vp9 (libvpx-vp9))\nPress [q] to stop, [?] for help\n[libvpx-vp9 @ 0000023e8e752900] v1.15.2-100-g40561f514\nOutput #0, webm, to 'C:\\Users\\Peter\\Desktop\\stuff\\MIUN\\quantitative_research\\video_compression\\compressed_videos\\BVI-HD\\vp9\\12\\BubblesPitcher_1920x1080_60fps_vp9.webm':\n  Metadata:\n    major_brand     : isom\n    minor_version   : 512\n    compatible_brands: isomiso2avc1mp41\n    encoder         : Lavf62.3.100\n  Stream #0:0(und): Video: vp9, yuv420p(tv, progressive), 1920x1080, q=2-31, 12000 kb/s, 60 fps, 1k tbn (default)\n    Metadata:\n      encoder         : Lavc62.11.100 libvpx-vp9\n      handler_name    : VideoHandler\n      vendor_id       : [0][0][0][0]\n    Side data:\n      cpb: bitrate max/min/avg: 0/0/0 buffer size: 12000000 vbv_delay: N/A\nframe=    0 fps=0.0 q=0.0 size=       0KiB time=N/A bitrate=N/A speed=N/A elapsed=0:00:00.51    \nframe=    6 fps=5.6 q=22.0 size=       1KiB time=00:00:00.10 bitrate=  50.6kbits/s speed=0.093x elapsed=0:00:01.07    \nframe=   10 fps=6.2 q=14.0 size=       1KiB time=00:00:00.16 bitrate=  30.4kbits/s speed=0.103x elapsed=0:00:01.61    \nframe=   13 fps=5.9 q=8.0 size=       1KiB time=00:00:00.21 bitrate=  23.4kbits/s speed=0.0978x elapsed=0:00:02.21    \nframe=   16 fps=5.7 q=15.0 size=       1KiB time=00:00:00.26 bitrate=  19.0kbits/s speed=0.0952x elapsed=0:00:02.80    \nframe=   20 fps=6.0 q=16.0 size=       1KiB time=00:00:00.31 bitrate=  16.0kbits/s speed=0.0945x elapsed=0:00:03.35    \nframe=   23 fps=5.8 q=17.0 size=       1KiB time=00:00:00.38 bitrate=  13.2kbits/s speed=0.096x elapsed=0:00:03.99    \nframe=   25 fps=5.5 q=6.0 size=       1KiB time=00:00:00.41 bitrate=  12.2kbits/s speed=0.0912x elapsed=0:00:04.56    \nframe=   28 fps=5.5 q=17.0 size=       1KiB time=00:00:00.46 bitrate=  10.9kbits/s speed=0.0919x elapsed=0:00:05.07    \nframe=   31 fps=5.5 q=18.0 size=       1KiB time=00:00:00.51 bitrate=   9.8kbits/s speed=0.0921x elapsed=0:00:05.60    \nframe=   34 fps=5.5 q=19.0 size=       1KiB time=00:00:00.56 bitrate=   8.9kbits/s speed=0.0923x elapsed=0:00:06.13    \nframe=   36 fps=5.4 q=20.0 size=       1KiB time=00:00:00.60 bitrate=   8.4kbits/s speed=0.0897x elapsed=0:00:06.69    \nframe=   39 fps=5.4 q=20.0 size=       1KiB time=00:00:00.65 bitrate=   7.8kbits/s speed=0.0901x elapsed=0:00:07.21    \nframe=   42 fps=5.4 q=20.0 size=       1KiB time=00:00:00.70 bitrate=   7.2kbits/s speed=0.09x elapsed=0:00:07.77    \nframe=   44 fps=5.3 q=20.0 size=       1KiB time=00:00:00.73 bitrate=   6.9kbits/s speed=0.088x elapsed=0:00:08.33    \nframe=   47 fps=5.3 q=21.0 size=       1KiB time=00:00:00.78 bitrate=   6.5kbits/s speed=0.0883x elapsed=0:00:08.87    \nframe=   50 fps=5.3 q=21.0 size=       1KiB time=00:00:00.83 bitrate=   6.1kbits/s speed=0.0888x elapsed=0:00:09.38    \nframe=   54 fps=5.4 q=21.0 size=       1KiB time=00:00:00.90 bitrate=   5.6kbits/s speed=0.0908x elapsed=0:00:09.91    \nframe=   58 fps=5.6 q=21.0 size=       1KiB time=00:00:00.95 bitrate=   5.3kbits/s speed=0.0909x elapsed=0:00:10.44    \nframe=   62 fps=5.6 q=20.0 size=       1KiB time=00:00:01.03 bitrate=   4.9kbits/s speed=0.0932x elapsed=0:00:11.08    \nframe=   64 fps=5.5 q=20.0 size=       1KiB time=00:00:01.06 bitrate=   4.7kbits/s speed=0.0909x elapsed=0:00:11.73    \nframe=   66 fps=5.4 q=21.0 size=       1KiB time=00:00:01.10 bitrate=   4.6kbits/s speed=0.0895x elapsed=0:00:12.28    \nframe=   70 fps=5.4 q=20.0 size=       1KiB time=00:00:01.16 bitrate=   4.3kbits/s speed=0.0904x elapsed=0:00:12.89    \nframe=   73 fps=5.4 q=10.0 size=       1KiB time=00:00:01.21 bitrate=   4.2kbits/s speed=0.0906x elapsed=0:00:13.42    \nframe=   77 fps=5.5 q=21.0 size=       1KiB time=00:00:01.28 bitrate=   3.9kbits/s speed=0.0918x elapsed=0:00:13.97    \nframe=   81 fps=5.6 q=21.0 size=       1KiB time=00:00:01.35 bitrate=   3.8kbits/s speed=0.093x elapsed=0:00:14.51    \nframe=   84 fps=5.6 q=21.0 size=       1KiB time=00:00:01.40 bitrate=   3.6kbits/s speed=0.0929x elapsed=0:00:15.07    \nframe=   89 fps=5.7 q=22.0 size=       1KiB time=00:00:01.48 bitrate=   3.4kbits/s speed=0.0951x elapsed=0:00:15.59    \nframe=   92 fps=5.7 q=22.0 size=       1KiB time=00:00:01.51 bitrate=   3.3kbits/s speed=0.0937x elapsed=0:00:16.19    \nframe=   95 fps=5.7 q=22.0 size=       1KiB time=00:00:01.56 bitrate=   3.2kbits/s speed=0.0933x elapsed=0:00:16.79    \nframe=   97 fps=5.5 q=10.0 size=       1KiB time=00:00:01.61 bitrate=   3.1kbits/s speed=0.0924x elapsed=0:00:17.49    \nframe=  100 fps=5.5 q=22.0 size=       1KiB time=00:00:01.66 bitrate=   3.0kbits/s speed=0.0923x elapsed=0:00:18.06    \nframe=  103 fps=5.5 q=10.0 size=       1KiB time=00:00:01.71 bitrate=   2.9kbits/s speed=0.0915x elapsed=0:00:18.76    \nframe=  106 fps=5.5 q=22.0 size=       1KiB time=00:00:01.76 bitrate=   2.9kbits/s speed=0.0911x elapsed=0:00:19.39    \nframe=  109 fps=5.5 q=10.0 size=       1KiB time=00:00:01.80 bitrate=   2.8kbits/s speed=0.09x elapsed=0:00:19.98    \nframe=  112 fps=5.4 q=21.0 size=       1KiB time=00:00:01.86 bitrate=   2.7kbits/s speed=0.0905x elapsed=0:00:20.62    \nframe=  114 fps=5.4 q=21.0 size=       1KiB time=00:00:01.90 bitrate=   2.7kbits/s speed=0.0896x elapsed=0:00:21.19    \nframe=  117 fps=5.4 q=21.0 size=       1KiB time=00:00:01.95 bitrate=   2.6kbits/s speed=0.0894x elapsed=0:00:21.80    \nframe=  120 fps=5.4 q=19.0 size=       1KiB time=00:00:01.98 bitrate=   2.6kbits/s speed=0.0886x elapsed=0:00:22.38    \nframe=  122 fps=5.3 q=17.0 size=       1KiB time=00:00:02.03 bitrate=   2.5kbits/s speed=0.0883x elapsed=0:00:23.01    \nframe=  125 fps=5.3 q=18.0 size=       1KiB time=00:00:02.08 bitrate=   2.4kbits/s speed=0.0884x elapsed=0:00:23.57    \nframe=  127 fps=5.3 q=18.0 size=       1KiB time=00:00:02.11 bitrate=   2.4kbits/s speed=0.0877x elapsed=0:00:24.13    \nframe=  130 fps=5.3 q=23.0 size=    2304KiB time=00:00:02.16 bitrate=8711.2kbits/s speed=0.0878x elapsed=0:00:24.66    \nframe=  133 fps=5.3 q=25.0 size=    2304KiB time=00:00:02.21 bitrate=8514.8kbits/s speed=0.0879x elapsed=0:00:25.20    \nframe=  136 fps=5.3 q=26.0 size=    2304KiB time=00:00:02.26 bitrate=8326.9kbits/s speed=0.0878x elapsed=0:00:25.82    \nframe=  139 fps=5.3 q=28.0 size=    2304KiB time=00:00:02.31 bitrate=8147.2kbits/s speed=0.0876x elapsed=0:00:26.45    \nframe=  141 fps=5.2 q=14.0 size=    2304KiB time=00:00:02.35 bitrate=8031.6kbits/s speed=0.0867x elapsed=0:00:27.10    \nframe=  144 fps=5.2 q=31.0 size=    2304KiB time=00:00:02.40 bitrate=7864.3kbits/s speed=0.0867x elapsed=0:00:27.68    \nframe=  146 fps=5.2 q=32.0 size=    2304KiB time=00:00:02.43 bitrate=7756.6kbits/s speed=0.0863x elapsed=0:00:28.20    \nframe=  147 fps=5.1 q=16.0 size=    2304KiB time=00:00:02.45 bitrate=7703.8kbits/s speed=0.0853x elapsed=0:00:28.73    \nframe=  149 fps=5.1 q=30.0 size=    2304KiB time=00:00:02.48 bitrate=7600.4kbits/s speed=0.0849x elapsed=0:00:29.24    \nframe=  151 fps=5.1 q=31.0 size=    2304KiB time=00:00:02.50 bitrate=7549.7kbits/s speed=0.084x elapsed=0:00:29.77    \nframe=  152 fps=5.0 q=31.0 size=    2304KiB time=00:00:02.53 bitrate=7450.4kbits/s speed=0.0836x elapsed=0:00:30.29    \nframe=  154 fps=5.0 q=31.0 size=    2304KiB time=00:00:02.56 bitrate=7353.6kbits/s speed=0.0833x elapsed=0:00:30.82    \nframe=  155 fps=4.9 q=32.0 size=    2304KiB time=00:00:02.58 bitrate=7306.2kbits/s speed=0.0824x elapsed=0:00:31.34    \nframe=  157 fps=4.9 q=32.0 size=    2304KiB time=00:00:02.61 bitrate=7213.1kbits/s speed=0.082x elapsed=0:00:31.92    \nframe=  159 fps=4.9 q=32.0 size=    2304KiB time=00:00:02.65 bitrate=7122.4kbits/s speed=0.0811x elapsed=0:00:32.66    \nframe=  161 fps=4.8 q=33.0 size=    2304KiB time=00:00:02.68 bitrate=7033.9kbits/s speed=0.0806x elapsed=0:00:33.28    \nframe=  163 fps=4.8 q=33.0 size=    2304KiB time=00:00:02.71 bitrate=6947.6kbits/s speed=0.0803x elapsed=0:00:33.82    \nframe=  165 fps=4.8 q=33.0 size=    2304KiB time=00:00:02.75 bitrate=6863.4kbits/s speed=0.08x elapsed=0:00:34.38    \nframe=  167 fps=4.8 q=34.0 size=    2304KiB time=00:00:02.78 bitrate=6781.2kbits/s speed=0.0796x elapsed=0:00:34.97    \nframe=  169 fps=4.7 q=35.0 size=    2304KiB time=00:00:02.81 bitrate=6701.0kbits/s speed=0.0791x elapsed=0:00:35.60    \nframe=  171 fps=4.7 q=39.0 size=    2304KiB time=00:00:02.85 bitrate=6622.6kbits/s speed=0.0783x elapsed=0:00:36.42    \nframe=  173 fps=4.7 q=40.0 size=    2304KiB time=00:00:02.88 bitrate=6546.0kbits/s speed=0.078x elapsed=0:00:36.96    \nframe=  175 fps=4.7 q=41.0 size=    2304KiB time=00:00:02.91 bitrate=6471.2kbits/s speed=0.0777x elapsed=0:00:37.53    \nframe=  175 fps=4.6 q=41.0 size=    2304KiB time=00:00:02.91 bitrate=6471.2kbits/s speed=0.0766x elapsed=0:00:38.07    \nframe=  177 fps=4.6 q=41.0 size=    2304KiB time=00:00:02.95 bitrate=6398.1kbits/s speed=0.0764x elapsed=0:00:38.59    \nframe=  178 fps=4.5 q=41.0 size=    2304KiB time=00:00:02.96 bitrate=6362.1kbits/s speed=0.0758x elapsed=0:00:39.13    \nframe=  179 fps=4.5 q=42.0 size=    2304KiB time=00:00:02.98 bitrate=6326.6kbits/s speed=0.0752x elapsed=0:00:39.65    \nframe=  180 fps=4.5 q=42.0 size=    2304KiB time=00:00:03.00 bitrate=6291.5kbits/s speed=0.0747x elapsed=0:00:40.18    \nframe=  181 fps=4.4 q=43.0 size=    2304KiB time=00:00:03.01 bitrate=6256.7kbits/s speed=0.0741x elapsed=0:00:40.70    \nframe=  182 fps=4.4 q=29.0 size=    2304KiB time=00:00:03.03 bitrate=6222.3kbits/s speed=0.0736x elapsed=0:00:41.21    \nframe=  183 fps=4.4 q=43.0 size=    2304KiB time=00:00:03.05 bitrate=6188.3kbits/s speed=0.073x elapsed=0:00:41.76    \nframe=  184 fps=4.3 q=43.0 size=    2304KiB time=00:00:03.06 bitrate=6154.7kbits/s speed=0.0725x elapsed=0:00:42.31    \nframe=  186 fps=4.3 q=43.0 size=    2304KiB time=00:00:03.10 bitrate=6088.5kbits/s speed=0.0722x elapsed=0:00:42.92    \nframe=  187 fps=4.3 q=43.0 size=    2304KiB time=00:00:03.11 bitrate=6055.9kbits/s speed=0.0716x elapsed=0:00:43.51    \nframe=  189 fps=4.3 q=43.0 size=    2304KiB time=00:00:03.15 bitrate=5991.9kbits/s speed=0.0714x elapsed=0:00:44.10    \nframe=  191 fps=4.3 q=44.0 size=    2304KiB time=00:00:03.18 bitrate=5929.1kbits/s speed=0.0713x elapsed=0:00:44.65    \nframe=  193 fps=4.3 q=44.0 size=    2304KiB time=00:00:03.21 bitrate=5867.7kbits/s speed=0.0711x elapsed=0:00:45.23    \nframe=  194 fps=4.2 q=32.0 size=    2304KiB time=00:00:03.23 bitrate=5837.4kbits/s speed=0.0704x elapsed=0:00:45.93    \nframe=  196 fps=4.2 q=45.0 size=    2304KiB time=00:00:03.26 bitrate=5777.9kbits/s speed=0.0702x elapsed=0:00:46.51    \nframe=  197 fps=4.2 q=45.0 size=    2304KiB time=00:00:03.28 bitrate=5748.5kbits/s speed=0.0697x elapsed=0:00:47.10    \nframe=  199 fps=4.2 q=45.0 size=    2304KiB time=00:00:03.31 bitrate=5690.8kbits/s speed=0.0696x elapsed=0:00:47.64    \nframe=  200 fps=4.1 q=32.0 size=    2304KiB time=00:00:03.33 bitrate=5662.3kbits/s speed=0.0691x elapsed=0:00:48.25    \nframe=  202 fps=4.1 q=45.0 size=    2304KiB time=00:00:03.36 bitrate=5606.2kbits/s speed=0.069x elapsed=0:00:48.78    \nframe=  204 fps=4.1 q=45.0 size=    2304KiB time=00:00:03.40 bitrate=5551.3kbits/s speed=0.0689x elapsed=0:00:49.38    \nframe=  205 fps=4.1 q=45.0 size=    2304KiB time=00:00:03.41 bitrate=5524.2kbits/s speed=0.0682x elapsed=0:00:50.06    \nframe=  207 fps=4.1 q=45.0 size=    2304KiB time=00:00:03.43 bitrate=5497.4kbits/s speed=0.0677x elapsed=0:00:50.71    \nframe=  208 fps=4.1 q=45.0 size=    2304KiB time=00:00:03.46 bitrate=5444.5kbits/s speed=0.0676x elapsed=0:00:51.27    \nframe=  210 fps=4.1 q=45.0 size=    2304KiB time=00:00:03.50 bitrate=5392.7kbits/s speed=0.0675x elapsed=0:00:51.84    \nframe=  211 fps=4.0 q=46.0 size=    2304KiB time=00:00:03.51 bitrate=5367.1kbits/s speed=0.0671x elapsed=0:00:52.41    \nframe=  213 fps=4.0 q=46.0 size=    2304KiB time=00:00:03.55 bitrate=5316.7kbits/s speed=0.067x elapsed=0:00:52.96    \nframe=  214 fps=4.0 q=46.0 size=    2304KiB time=00:00:03.56 bitrate=5291.9kbits/s speed=0.0665x elapsed=0:00:53.60    \nframe=  215 fps=4.0 q=46.0 size=    2304KiB time=00:00:03.58 bitrate=5267.3kbits/s speed=0.066x elapsed=0:00:54.27    \nframe=  217 fps=4.0 q=46.0 size=    2304KiB time=00:00:03.61 bitrate=5218.7kbits/s speed=0.066x elapsed=0:00:54.82    \nframe=  218 fps=3.9 q=34.0 size=    2304KiB time=00:00:03.63 bitrate=5194.8kbits/s speed=0.0656x elapsed=0:00:55.41    \nframe=  220 fps=3.9 q=47.0 size=    2304KiB time=00:00:03.66 bitrate=5147.6kbits/s speed=0.0655x elapsed=0:00:56.00    \nframe=  221 fps=3.9 q=47.0 size=    2304KiB time=00:00:03.68 bitrate=5124.3kbits/s speed=0.0651x elapsed=0:00:56.59    \nframe=  223 fps=3.9 q=47.0 size=    2304KiB time=00:00:03.71 bitrate=5078.3kbits/s speed=0.065x elapsed=0:00:57.14    \nframe=  224 fps=3.9 q=34.0 size=    2304KiB time=00:00:03.73 bitrate=5055.6kbits/s speed=0.0645x elapsed=0:00:57.88    \nframe=  226 fps=3.9 q=47.0 size=    2304KiB time=00:00:03.76 bitrate=5010.9kbits/s speed=0.0644x elapsed=0:00:58.51    \nframe=  227 fps=3.8 q=47.0 size=    2304KiB time=00:00:03.78 bitrate=4988.8kbits/s speed=0.064x elapsed=0:00:59.08    \nframe=  229 fps=3.8 q=47.0 size=    2304KiB time=00:00:03.81 bitrate=4945.2kbits/s speed=0.064x elapsed=0:00:59.65    \nframe=  230 fps=3.8 q=34.0 size=    2304KiB time=00:00:03.83 bitrate=4923.7kbits/s speed=0.0636x elapsed=0:01:00.23    \nframe=  232 fps=3.8 q=47.0 size=    2304KiB time=00:00:03.86 bitrate=4881.3kbits/s speed=0.0636x elapsed=0:01:00.79    \nframe=  234 fps=3.8 q=47.0 size=    2304KiB time=00:00:03.90 bitrate=4839.6kbits/s speed=0.0636x elapsed=0:01:01.35    \nframe=  235 fps=3.8 q=47.0 size=    2304KiB time=00:00:03.91 bitrate=4819.0kbits/s speed=0.0632x elapsed=0:01:01.94    \nframe=  237 fps=3.8 q=47.0 size=    2304KiB time=00:00:03.95 bitrate=4778.3kbits/s speed=0.0631x elapsed=0:01:02.63    \nframe=  238 fps=3.8 q=46.0 size=    2304KiB time=00:00:03.96 bitrate=4758.2kbits/s speed=0.0627x elapsed=0:01:03.31    \nframe=  240 fps=3.8 q=46.0 size=    2304KiB time=00:00:03.98 bitrate=4738.3kbits/s speed=0.0624x elapsed=0:01:03.84    \nframe=  241 fps=3.7 q=46.0 size=    2304KiB time=00:00:04.01 bitrate=4699.0kbits/s speed=0.0624x elapsed=0:01:04.41    \nframe=  243 fps=3.7 q=46.0 size=    2304KiB time=00:00:04.05 bitrate=4660.3kbits/s speed=0.0623x elapsed=0:01:04.96    \nframe=  245 fps=3.7 q=46.0 size=    2304KiB time=00:00:04.08 bitrate=4622.3kbits/s speed=0.0623x elapsed=0:01:05.53    \nframe=  246 fps=3.7 q=46.0 size=    2304KiB time=00:00:04.10 bitrate=4603.5kbits/s speed=0.062x elapsed=0:01:06.10    \nframe=  248 fps=3.7 q=34.0 size=    2304KiB time=00:00:04.13 bitrate=4566.4kbits/s speed=0.062x elapsed=0:01:06.66    \nframe=  249 fps=3.7 q=44.0 size=    2304KiB time=00:00:04.15 bitrate=4548.0kbits/s speed=0.0616x elapsed=0:01:07.35    \nframe=  250 fps=3.7 q=44.0 size=    2304KiB time=00:00:04.16 bitrate=4529.8kbits/s speed=0.0614x elapsed=0:01:07.90    \nframe=  252 fps=3.7 q=44.0 size=    2304KiB time=00:00:04.20 bitrate=4493.9kbits/s speed=0.0614x elapsed=0:01:08.41    \nframe=  254 fps=3.7 q=44.0 size=    2304KiB time=00:00:04.23 bitrate=4458.5kbits/s speed=0.0614x elapsed=0:01:08.96    \nframe=  255 fps=3.7 q=44.0 size=    2304KiB time=00:00:04.25 bitrate=4441.0kbits/s speed=0.0611x elapsed=0:01:09.56    \nframe=  258 fps=3.7 q=46.0 size=    4864KiB time=00:00:04.30 bitrate=9266.5kbits/s speed=0.0613x elapsed=0:01:10.10    \nframe=  260 fps=3.7 q=46.0 size=    4864KiB time=00:00:04.33 bitrate=9195.2kbits/s speed=0.0613x elapsed=0:01:10.67    \nframe=  261 fps=3.7 q=46.0 size=    4864KiB time=00:00:04.35 bitrate=9160.0kbits/s speed=0.0611x elapsed=0:01:11.19    \nframe=  264 fps=3.7 q=46.0 size=    4864KiB time=00:00:04.38 bitrate=9090.3kbits/s speed=0.0611x elapsed=0:01:11.76    \nframe=  265 fps=3.7 q=46.0 size=    4864KiB time=00:00:04.41 bitrate=9021.7kbits/s speed=0.0611x elapsed=0:01:12.33    \nframe=  267 fps=3.7 q=46.0 size=    4864KiB time=00:00:04.43 bitrate=8987.8kbits/s speed=0.0608x elapsed=0:01:12.93    \nframe=  268 fps=3.6 q=46.0 size=    4864KiB time=00:00:04.46 bitrate=8920.7kbits/s speed=0.0608x elapsed=0:01:13.51    \nframe=  269 fps=3.6 q=33.0 size=    4864KiB time=00:00:04.48 bitrate=8887.6kbits/s speed=0.0605x elapsed=0:01:14.06    \nframe=  271 fps=3.6 q=45.0 size=    4864KiB time=00:00:04.51 bitrate=8822.0kbits/s speed=0.0605x elapsed=0:01:14.63    \nframe=  273 fps=3.6 q=45.0 size=    4864KiB time=00:00:04.55 bitrate=8757.3kbits/s speed=0.0605x elapsed=0:01:15.23    \nframe=  275 fps=3.6 q=33.0 size=    4864KiB time=00:00:04.58 bitrate=8693.6kbits/s speed=0.0605x elapsed=0:01:15.78    \nframe=  276 fps=3.6 q=45.0 size=    4864KiB time=00:00:04.60 bitrate=8662.1kbits/s speed=0.0603x elapsed=0:01:16.32    \nframe=  276 fps=3.6 q=45.0 size=    4864KiB time=00:00:04.60 bitrate=8662.1kbits/s speed=0.0598x elapsed=0:01:16.88    \nframe=  276 fps=3.6 q=45.0 size=    4864KiB time=00:00:04.60 bitrate=8662.1kbits/s speed=0.0594x elapsed=0:01:17.42    \nframe=  276 fps=3.5 q=45.0 size=    4864KiB time=00:00:04.60 bitrate=8662.1kbits/s speed=0.059x elapsed=0:01:17.95    \nframe=  276 fps=3.5 q=45.0 size=    4864KiB time=00:00:04.60 bitrate=8662.1kbits/s speed=0.0586x elapsed=0:01:18.50    \nframe=  276 fps=3.5 q=45.0 size=    4864KiB time=00:00:04.60 bitrate=8662.1kbits/s speed=0.0581x elapsed=0:01:19.13    \nframe=  276 fps=3.5 q=45.0 size=    4864KiB time=00:00:04.60 bitrate=8662.1kbits/s speed=0.0577x elapsed=0:01:19.75    \nframe=  276 fps=3.4 q=45.0 size=    4864KiB time=00:00:04.60 bitrate=8662.1kbits/s speed=0.0573x elapsed=0:01:20.31    \nframe=  276 fps=3.4 q=45.0 size=    4864KiB time=00:00:04.60 bitrate=8662.1kbits/s speed=0.0568x elapsed=0:01:20.92    \nframe=  276 fps=3.4 q=45.0 size=    4864KiB time=00:00:04.60 bitrate=8662.1kbits/s speed=0.0564x elapsed=0:01:21.56    \nframe=  276 fps=3.4 q=45.0 size=    4864KiB time=00:00:04.60 bitrate=8662.1kbits/s speed=0.056x elapsed=0:01:22.16    \nframe=  276 fps=3.3 q=45.0 size=    4864KiB time=00:00:04.60 bitrate=8662.1kbits/s speed=0.0556x elapsed=0:01:22.80    \nframe=  276 fps=3.3 q=45.0 size=    4864KiB time=00:00:04.60 bitrate=8662.1kbits/s speed=0.0551x elapsed=0:01:23.47    \nframe=  276 fps=3.3 q=45.0 size=    4864KiB time=00:00:04.60 bitrate=8662.1kbits/s speed=0.0547x elapsed=0:01:24.04    \nframe=  276 fps=3.3 q=45.0 size=    4864KiB time=00:00:04.60 bitrate=8662.1kbits/s speed=0.0543x elapsed=0:01:24.64    \n[out#0/webm @ 0000023e8e867840] video:5771KiB audio:0KiB subtitle:0KiB other streams:0KiB global headers:0KiB muxing overhead: 0.049696%\nframe=  300 fps=3.5 q=45.0 Lsize=    5774KiB time=00:00:05.00 bitrate=9460.5kbits/s speed=0.0589x elapsed=0:01:24.84    \n",
  "seconds": 85.2656581401825,
  "probe_out": {}
}